<?xml version="1.0" encoding="UTF-8"?>
<svg width="40px" height="40px" viewBox="0 0 40 40" version="1.1" xmlns="http://www.w3.org/2000/svg" xmlns:xlink="http://www.w3.org/1999/xlink">
    <title>Arrow Right</title>
    <defs>
        <polygon id="path-1" points="0 0 13 0 13 13 0 13"></polygon>
    </defs>
    <g id="Arrow-Right" stroke="none" stroke-width="1" fill="none" fill-rule="evenodd">
        <g id="Arrow-Right-Copy-2">
            <circle id="Oval" fill="#25458D" cx="20" cy="20" r="20"></circle>
            <g id="Group-3" transform="translate(20.500000, 20.500000) rotate(-75.000000) translate(-20.500000, -20.500000) translate(14.000000, 14.000000)">
                <mask id="mask-2" fill="white">
                    <use xlink:href="#path-1"></use>
                </mask>
                <g id="Clip-2"></g>
                <path d="M7.9559089,8.78670222 C8.43294931,8.41339986 8.64995139,8.00291501 8.7668114,7.49253813 C9.20909175,5.56110062 9.69159446,3.63869198 10.1549791,1.71201514 C10.3204205,1.02426219 10.7862052,0.63347667 11.3568495,0.718676284 C11.8831334,0.797227374 12.2509279,1.21419659 12.2232854,1.84999255 C12.184801,2.73432844 12.1556688,3.63384922 11.9682127,4.49364302 C11.5745137,6.30048225 11.1249503,8.09870302 10.6004872,9.87205338 C10.4400116,10.4146058 10.0103111,10.9088949 9.61354986,11.3444143 C9.20553298,11.7921638 8.501228,11.8200712 7.9391082,11.4573572 C7.52430485,11.1896104 7.13151619,10.866131 6.79343324,10.5076852 C5.62599187,9.26950003 4.48544815,8.00611615 3.33729033,6.75011952 C2.82491052,6.18959142 2.30127508,5.63776386 1.81728265,5.05376072 C1.5891077,4.77854462 1.38882356,4.45498308 1.27361879,4.12009442 C1.14732391,3.75344059 1.2674944,3.39130119 1.61443288,3.15671497 C1.9554125,2.92606861 2.3151791,2.94002231 2.64945499,3.16262477 C2.84361475,3.29198372 3.0209738,3.4549957 3.17954588,3.6267903 C4.36949853,4.91561915 5.55109222,6.21199941 6.73938963,7.50246987 C7.12837123,7.9248564 7.52910504,8.3368187 7.9559089,8.78670222" id="Fill-1" fill="#FFFFFF" mask="url(#mask-2)" transform="translate(6.724745, 6.207107) rotate(-1.000000) translate(-6.724745, -6.207107) "></path>
            </g>
        </g>
    </g>
</svg>