<?xml version="1.0" encoding="UTF-8"?>
<svg width="40px" height="40px" viewBox="0 0 40 40" version="1.1" xmlns="http://www.w3.org/2000/svg" xmlns:xlink="http://www.w3.org/1999/xlink">
    <title>Arrow Left</title>
    <defs>
        <polygon id="path-1" points="0 -1.8189894e-12 14 -1.8189894e-12 14 14 0 14"></polygon>
    </defs>
    <g id="Arrow-Left" stroke="none" stroke-width="1" fill="none" fill-rule="evenodd">
        <circle id="Oval" fill="#25458D" cx="20" cy="20" r="20"></circle>
        <g transform="translate(20.000000, 20.000000) rotate(-180.000000) translate(-20.000000, -20.000000) " id="Group-3">
            <g transform="translate(20.999594, 19.996272) rotate(-74.000000) translate(-20.999594, -19.996272) translate(13.999594, 12.996272)">
                <mask id="mask-2" fill="white">
                    <use xlink:href="#path-1"></use>
                </mask>
                <g id="Clip-2"></g>
                <path d="M7.11834316,9.10699733 C7.63875088,8.69975839 7.87548042,8.25195674 8.00296406,7.69518196 C8.48545173,5.58815923 9.01181832,3.49098616 9.51732888,1.38915689 C9.69781032,0.638880932 10.2059392,0.212569461 10.8284602,0.305514495 C11.402588,0.391206593 11.8038184,0.846082097 11.7736629,1.5396777 C11.73168,2.50440775 11.6998994,3.48570316 11.4954019,4.42366003 C11.065912,6.39475737 10.5754792,8.35645275 10.0033377,10.2910168 C9.8282734,10.8828922 9.35950919,11.4221167 8.92667875,11.8972287 C8.48156943,12.3856827 7.71323672,12.4161271 7.10001513,12.0204391 C6.64750237,11.7283517 6.21900566,11.3754651 5.8501879,10.9844333 C4.57661549,9.63368586 3.33238598,8.2554489 2.07985018,6.88527075 C1.52089039,6.27378555 0.949651719,5.67179185 0.42165998,5.03469752 C0.172741851,4.73446178 -0.0457499427,4.38148555 -0.171427867,4.01615247 C-0.309204097,3.61616647 -0.178109021,3.2211053 0.200369325,2.96519306 C0.572347089,2.71357885 0.964819744,2.72880106 1.32948435,2.97164011 C1.54129499,3.11275897 1.7347776,3.29059022 1.90776532,3.47800251 C3.20589548,4.88399762 4.49490678,6.29823063 5.79123123,7.70601659 C6.21557479,8.1668019 6.65273895,8.61621531 7.11834316,9.10699733" id="Fill-1" fill="#FFFFFF" mask="url(#mask-2)"></path>
            </g>
        </g>
    </g>
</svg>